<svg xmlns="http://www.w3.org/2000/svg" viewBox="0 0 64 64">
  <defs>
    <linearGradient id="g" x1="0%" x2="100%" y1="0%" y2="100%">
      <stop offset="0%" stop-color="#38bdf8" />
      <stop offset="100%" stop-color="#8b5cf6" />
    </linearGradient>
  </defs>
  <rect width="64" height="64" rx="16" fill="#0f172a" />
  <path d="M24 18c-6 0-10 4-10 10 0 3 1 6 4 8-2 5 2 10 8 10 2 0 4 0 6-2v-8c0-3-2-6-6-6h-2v-4h2c3 0 6-2 6-6 0-1 0-2-1-2-1 0-3 0-7 0Z" fill="url(#g)" />
  <path d="M40 18c6 0 10 4 10 10 0 3-1 6-4 8 2 5-2 10-8 10-2 0-4 0-6-2v-8c0-3 2-6 6-6h2v-4h-2c-3 0-6-2-6-6 0-1 0-2 1-2 1 0 3 0 7 0Z" fill="url(#g)" />
  <path d="M26 24h4M24 31h6M38 24h-4M40 31h-6M32 18v28" stroke="#e2e8f0" stroke-linecap="round" stroke-width="2.5" />
</svg>
